# xmcd
#
# Track frame offsets: 
#        150
#        17475
#        42057
#
# Disc length: 749 seconds
#
# Revision: 0
# Processed by: cddbd v1.5.1PL0 Copyright (c) Steve Scherf et al.
# Submitted via: ExactAudioCopy v0.95a5
#
DISCID=1502eb03
DTITLE=Dimmer - Don't Make Me Buy Out Your Silence
DYEAR=1996
DGENRE=Alternative
TTITLE0=Don't Make Me Buy Out Your Silence
TTITLE1=Pacer (extended version)
TTITLE2=On The Road Again
EXTD=
EXTT0=
EXTT1=
EXTT2=
PLAYORDER=
